PathFileType	4	(X/Y/Z)	Kaydara	
DataRate	CameraRate	NumFrames	NumMarkers	Units	OrigDataRate	OrigDataStartFrame	OrigNumFrames	
240.00	240.00	4	72	mm	240.00	315	359	
Frame#	Time	Hips			RightUpLeg			RightLeg			RightFoot			RightFoot_End			LeftUpLeg			LeftLeg			LeftFoot			LeftFoot_End			Spine			Spine1			Spine2			Spine3			Neck			Head			Head_End			RightShoulder			RightArm			RightForeArm			RightHand			RightHandThumb1			RightHandThumb2			RightHandThumb3			RightHandThumb3_End			RightInHandIndex			RightHandIndex1			RightHandIndex2			RightHandIndex3			RightHandIndex3_End			RightInHandMiddle			RightHandMiddle1			RightHandMiddle2			RightHandMiddle3			RightHandMiddle3_End			RightInHandRing			RightHandRing1			RightHandRing2			RightHandRing3			RightHandRing3_End			RightInHandPinky			RightHandPinky1			RightHandPinky2			RightHandPinky3			RightHandPinky3_End			LeftShoulder			LeftArm			LeftForeArm			LeftHand			LeftHandThumb1			LeftHandThumb2			LeftHandThumb3			LeftHandThumb3_End			LeftInHandIndex			LeftHandIndex1			LeftHandIndex2			LeftHandIndex3			LeftHandIndex3_End			LeftInHandMiddle			LeftHandMiddle1			LeftHandMiddle2			LeftHandMiddle3			LeftHandMiddle3_End			LeftInHandRing			LeftHandRing1			LeftHandRing2			LeftHandRing3			LeftHandRing3_End			LeftInHandPinky			LeftHandPinky1			LeftHandPinky2			LeftHandPinky3			LeftHandPinky3_End			
		X1	Y1	Z1	X2	Y2	Z2	X3	Y3	Z3	X4	Y4	Z4	X5	Y5	Z5	X6	Y6	Z6	X7	Y7	Z7	X8	Y8	Z8	X9	Y9	Z9	X10	Y10	Z10	X11	Y11	Z11	X12	Y12	Z12	X13	Y13	Z13	X14	Y14	Z14	X15	Y15	Z15	X16	Y16	Z16	X17	Y17	Z17	X18	Y18	Z18	X19	Y19	Z19	X20	Y20	Z20	X21	Y21	Z21	X22	Y22	Z22	X23	Y23	Z23	X24	Y24	Z24	X25	Y25	Z25	X26	Y26	Z26	X27	Y27	Z27	X28	Y28	Z28	X29	Y29	Z29	X30	Y30	Z30	X31	Y31	Z31	X32	Y32	Z32	X33	Y33	Z33	X34	Y34	Z34	X35	Y35	Z35	X36	Y36	Z36	X37	Y37	Z37	X38	Y38	Z38	X39	Y39	Z39	X40	Y40	Z40	X41	Y41	Z41	X42	Y42	Z42	X43	Y43	Z43	X44	Y44	Z44	X45	Y45	Z45	X46	Y46	Z46	X47	Y47	Z47	X48	Y48	Z48	X49	Y49	Z49	X50	Y50	Z50	X51	Y51	Z51	X52	Y52	Z52	X53	Y53	Z53	X54	Y54	Z54	X55	Y55	Z55	X56	Y56	Z56	X57	Y57	Z57	X58	Y58	Z58	X59	Y59	Z59	X60	Y60	Z60	X61	Y61	Z61	X62	Y62	Z62	X63	Y63	Z63	X64	Y64	Z64	X65	Y65	Z65	X66	Y66	Z66	X67	Y67	Z67	X68	Y68	Z68	X69	Y69	Z69	X70	Y70	Z70	X71	Y71	Z71	X72	Y72	Z72	

315	1.308	4198.941	914.58397	126.699	4241.25787971446	883.915506949984	50.123141710633924	4142.822500887805	490.7461139879947	-55.662192316159064	4142.770075536668	99.76981454696801	-134.4299264374447	3991.81020394923	22.635271737006036	-46.11411216428915	4169.489546962374	918.7720599187072	215.54965939563237	4079.3852233194307	515.6623562856038	284.7030899355234	3995.3190415307827	89.78750295425303	355.0256888916977	3875.0904126110313	6.307227311800289	232.08931453498855	4139.309314791297	1034.0796618569289	75.40824023553597	4079.9120721410018	1090.0535384385655	22.691004111448752	4014.7795618783693	1141.4986578533562	-35.19990887513489	3948.0544959565805	1180.174916185414	-94.31219139467188	3875.609769188429	1221.8321471557479	-155.91578715923072	3808.333120635849	1260.6026803129407	-209.61439650302154	3674.803350009158	1344.108065604883	-232.3279496183768	3910.503210470633	1192.6503567847926	-158.17520114861173	3912.540991093177	1105.4650562176237	-233.86625008977953	3882.0739699682017	958.8905123875344	-65.1972863085653	3785.0004185475423	844.4876786099745	13.794792627248498	3782.8691693670785	855.9762939862841	21.80232744435508	3781.324577471601	853.9983552307606	32.98159008826389	3779.850503011066	849.1341123093983	41.31007793644949	3778.2808001607286	842.0961331541737	48.71791814454916	3781.0032215427345	844.8690792460123	24.50070487769151	3774.465528929933	831.0551207392889	42.80697493825698	3771.2096023763056	819.636630418892	55.45929696056015	3770.727337328893	815.4590299311161	61.41443875840187	3771.368258743598	813.9717237713396	65.05461160320783	3780.2086300140654	835.7805262504552	25.33695802751473	3773.4017968070348	817.3913226641521	43.644693333536594	3769.7669099257214	803.7748108429217	57.501747887773334	3769.145722791087	798.1796559922567	64.71080289342811	3769.8278718576953	796.2824465645349	68.70567281326126	3779.797040875665	829.704762092885	25.46870034652394	3773.289610733046	807.9290659038027	42.01408317465266	3770.048511044483	794.9076980706562	54.11497647716784	3769.4106055577195	788.8983358976083	61.08091270305241	3770.0336506254744	786.8242900946025	64.84288663453745	3779.646310173904	823.15912402121	25.026552451319095	3773.5255192221557	799.1225670657062	39.962313100944485	3770.8449046546884	786.9914848981412	49.61598727784527	3770.3383699047163	781.7839218937568	54.67942487001863	3770.8665546071297	779.4722562704543	58.00182238289668	3889.1673151333475	1223.9055776779194	-111.79647629309953	3871.3841853085682	1259.83546541688	-6.330120230119866	3901.6040356251456	1046.6275333653318	28.669996120810225	3822.273361965956	856.6642529213344	17.951190230062085	3811.1896073470466	868.1240662516384	17.12459986509505	3801.8343437982844	861.6284540441471	10.513609894374593	3795.0401775863565	853.444187989901	6.555892527830089	3789.1373627069124	843.4896715969496	3.8092988058219674	3808.6920037701534	856.7879539253781	20.175100309780085	3788.979106219199	840.2147915334506	22.462346221058503	3777.824701203359	824.754632703647	19.72752149355946	3774.054355493874	817.2555936614365	14.94859229275108	3773.068090392698	812.4736093567024	8.916404194872971	3808.740720159551	847.2215854363544	21.647336279360907	3789.538973143883	825.8832900387392	24.67582029064187	3777.4408730176497	807.7997696282716	21.87301259355781	3772.9274063814746	798.1701867980348	16.194467433566217	3771.8654219615764	792.6547662215215	9.636477446368275	3809.2464038249036	840.898509152023	22.67771538207688	3792.383790625506	816.3232468439435	26.428504010360825	3781.9448522182774	799.3548486958422	24.16570446422908	3777.6474514594033	789.4255053369724	18.783950944370883	3776.6755561733703	783.93594293758	12.663116848368247	3810.650686046071	833.991351061002	23.41608224742574	3795.9371306427156	807.2299063324746	27.475337800591735	3787.8168624223913	791.8666735894992	25.92768119517833	3784.7978641868126	783.7652651092808	22.130067128199908	3784.0034161409553	778.4080969821413	16.78158605427036
316	1.313	4198.941	914.58397	126.699	4241.0990227886505	883.8299269720757	50.06839083704416	4142.701807480787	490.65237322444517	-55.72508637954939	4142.8895131239915	99.68230236992584	-134.51426983756963	3991.931998671213	22.528340097432473	-46.21154700331186	4169.642270603304	918.8506074101263	215.59712578655842	4079.6481044340503	515.7315035148002	284.83795557208356	3995.454973690819	89.8270703310904	354.83571388642645	3875.249182879957	6.322741247926801	231.89338494821317	4139.343846339794	1034.1152378229544	75.44376928498205	4079.9915945528273	1090.1089793358367	22.69323328443923	4014.908228660298	1141.5606706176168	-35.24916090810214	3948.2335709519616	1180.2210471874102	-94.4285740331136	3875.8391786301886	1221.8636721748012	-156.10099242593517	3808.6037930143857	1260.6240624081197	-209.85819243621728	3675.0840561600144	1344.18849337109	-232.4881785964962	3910.752792923079	1192.6633366472129	-158.3636657409297	3912.8382273597877	1105.1824489053477	-234.14277739883718	3881.8362529799565	958.3872099530664	-65.33143715749142	3784.7514023887115	843.9009583192997	15.05345898543468	3782.1887906033967	855.0395208284507	23.06007195843797	3780.3214996970105	852.9636455990003	34.72488520062232	3778.672664950316	848.0841484281872	43.42898811992799	3777.000017480795	841.0787495067658	51.182023420326715	3780.4613125448304	844.0767750790699	25.856286390039223	3773.6659736068823	830.2022862375087	44.60745033620039	3770.236482505817	818.812301090662	57.76394159023595	3769.628748257165	814.6527547957953	64.07427229080311	3770.1539712990043	813.1806166341013	68.03659432871343	3779.81186424253	835.1376988683298	26.788235443262337	3772.8322367954693	816.7702879912392	45.5816133873419	3769.0279508991407	803.2048879385766	60.00024344188489	3768.2649844741873	797.6411163071407	67.64330417381245	3768.8252029464543	795.7651707267635	71.99332969249119	3779.5096106478145	829.1687016980931	26.97459196011575	3772.942869577735	807.5040965784553	43.997811786082124	3769.574826785379	794.5476981162188	56.59910894787949	3768.8111598685123	788.5794510251762	63.989483810980836	3769.3247701705395	786.5305378270866	68.0881444383066	3779.4906486460955	822.750889444544	26.595436380886767	3773.3973383538214	798.8937239473728	42.00293494983573	3770.647633314027	786.8460422525523	52.07229769827877	3770.0651186776136	781.6836462925673	57.4525705475759	3770.5054267422797	779.4029787576645	61.07738938056779	3889.3421889349524	1223.9666627584031	-111.93145708117889	3871.3732361811894	1260.112108845322	-6.239192424318945	3901.5131812346804	1046.528718710513	29.72859451942046	3822.544120887243	856.586798029754	20.540109253135064	3811.533355694025	867.8108505796325	19.431434015482328	3802.4196080840757	861.3545736661247	12.610383538786493	3795.8191654646103	853.2449720162581	8.563144167206097	3790.0996913414706	843.3931399080585	5.790479867658664	3809.12720077662	856.6070334967062	22.667388473871696	3789.7896458162936	840.1183411522134	24.98348897969533	3778.932614347505	824.7999151438152	22.226804031607937	3775.3170779191546	817.3894613247883	17.362785414782124	3774.4386666813743	812.6811161158205	11.211940038997273	3809.234014623672	847.170237813283	24.291015424440644	3790.429779622702	825.9843946020885	27.429542145528664	3778.662667001918	808.072459581875	24.62271039988893	3774.3390879206395	798.557873950356	18.851023496319502	3773.396629993938	793.1269764974618	12.167827513696768	3809.7710403130573	840.9360332690526	25.428418614860977	3793.291516514173	816.5730340782053	29.37308076229221	3783.147079797648	799.7712563425712	27.126859723332707	3779.036033420264	789.9619001470691	21.665929681621378	3778.178035709896	784.5561054999057	15.432424700381915	3811.201561827147	834.1329252184998	26.282977435584822	3796.8552495088215	807.6286085512567	30.594386859392195	3788.9785174174544	792.4245020746043	29.090490442550735	3786.0991760588504	784.4230462851616	25.249871207450205	3785.4077692375095	779.1472383206553	19.810068697230715
317	1.317	4198.941	914.58397	126.699	4240.958828711264	883.7551791768052	50.01973403223636	4142.614063869152	490.56128830748526	-55.76485411682533	4143.019493407338	99.59800340800054	-134.5783543991009	3992.0637636906795	22.425742917094833	-46.28872188520703	4169.7776871593005	918.9193512988176	215.63925637571398	4079.8737587517458	515.7935295501436	284.95656044031534	3995.5695075214494	89.86236106491471	354.6636308627336	3875.384569289951	6.335392606921861	231.7163289549093	4139.371488861505	1034.1456887979	75.47557824228609	4080.061504494811	1090.1533001601074	22.688928027501824	4015.0251054561504	1141.6057806485842	-35.30732073155116	3948.4000603358836	1180.2463078979026	-94.55560848023163	3876.0553427960967	1221.87028275236	-156.29883987092734	3808.8607449191372	1260.6170237362726	-210.11657274282283	3675.3548548271583	1344.2453559541977	-232.66754078496285	3910.9909122453028	1192.6532243499032	-158.5640996145445	3913.152340235239	1104.89228489163	-234.45016632038784	3881.6308817079585	957.6302458544321	-65.67220083481888	3784.662859086292	842.9234448750223	15.845518876993303	3781.6632627547924	853.7176214253523	23.866376706505065	3779.50115692688	851.5617173247196	36.015005164588075	3777.700982739314	846.6777876241042	45.087125994479045	3775.948339327732	839.7125797303144	53.17355760740651	3780.0859857864843	842.89220918169	26.738633196041548	3773.066277995918	828.9563812650242	45.902099091461494	3769.4975971960907	817.6036521614967	59.54160080978606	3768.786079221952	813.4741190171758	66.20253461192958	3769.213765109343	812.0314441863097	70.48898991564242	3779.591941139432	834.0985952309765	27.75010879639257	3772.477524011768	815.7500140286361	46.988593762367294	3768.5426088095137	802.2447593114279	61.9436850360161	3767.664630363577	796.7265515374515	70.01424673960136	3768.123083879564	794.8873913009654	74.7211261910953	3779.405341815697	828.2334439041038	27.980423873639154	3772.818597248058	806.6744298618631	45.43571643617917	3769.3586319520323	793.7903534568613	58.51352168541467	3768.495675292535	787.8766231801122	66.32099548857823	3768.9191208286375	785.867305541467	70.7574349019826	3779.5251060443097	821.9409453175684	27.653425480890835	3773.4993568247987	798.2562236587028	43.483783140276856	3770.710350740135	786.2970421200612	53.94676994313538	3770.0720094777257	781.189207280762	59.63710724828053	3770.441997083751	778.952130277147	63.56449923202675	3889.502422523785	1224.0037196120356	-112.0784095669863	3871.327763047904	1260.3332672729957	-6.15101484410661	3901.3925682266927	1046.381571592198	30.681258264904045	3822.963855880804	856.4265481356741	22.803504813831296	3812.0221547298884	867.323498726821	21.372645664455636	3803.1933895200814	860.8350086963081	14.297527172493282	3796.8261332109078	852.7559533646114	10.128424525491923	3791.330762332463	842.9749094206179	7.3012786556219815	3809.7384135179254	856.2624111283646	24.78336059226312	3790.8586743637434	839.7628473286861	27.048478679061198	3780.3651061943215	824.528606615093	24.219398983513557	3776.936352647213	817.1785398548924	19.249206824084773	3776.186111842891	812.5256065274351	12.969222853745698	3809.925870268387	846.9744503898851	26.556787653131266	3791.611781568523	825.858482435865	29.726624467067065	3780.2504916456837	808.0581988944903	26.86068089741671	3776.156679374276	798.6259637421315	20.97044158324812	3775.356612071807	793.2603131226438	14.150584086136444	3810.5080498659145	840.8450882091648	27.802050325932672	3794.5065895433722	816.6340026387987	31.87052291052157	3784.724513581664	799.9496626605297	29.593047103646565	3780.839686268639	790.2304262470717	24.028526383414263	3780.1177465860046	784.891043852889	17.671625097634465	3811.978433373639	834.1677588320191	28.77669120084262	3798.09485912953	807.8783445421858	33.27810378475958	3790.5196949117694	792.7990120901791	31.780253778971655	3787.8108741035653	784.8781574778142	27.87910660141315	3787.243167157094	779.6697362911231	22.33864576008066
318	1.321	4198.941	914.58397	126.699	4240.839200088993	883.691694494769	49.97793067480105	4142.559998262138	490.4738843299279	-55.78184828974704	4143.157505069577	99.51787768895632	-134.6225211967202	3992.2030010168046	22.328788095411433	-46.34564708423945	4169.893910245479	918.9779908940482	215.67553190145304	4080.059460529186	515.8480701323916	285.0570365357806	3995.6611522829294	89.89347658755062	354.5119532278901	3875.49466635933	6.345802749856608	231.56071041588885	4139.392083651082	1034.17041090984	75.50255508965041	4080.120927215204	1090.1857203174407	22.67764187847275	4015.1284604954267	1141.6333619666793	-35.37370854751355	3948.5511901023865	1180.2507076358295	-94.691017118932	3876.2544314811544	1221.8525979916512	-156.50539615422827	3809.099296990303	1260.5826963671482	-210.38417930905746	3675.6108323912213	1344.2786151670232	-232.86248015393227	3911.2125106868993	1192.6197839379454	-158.77247809998553	3913.4703258823224	1104.5939325733286	-234.77831691412973	3881.4404721784026	956.6566475002868	-66.18049294002267	3784.7002727064573	841.6213006145612	16.25005848988087	3781.267765998771	852.0845200719075	24.30221388097815	3778.844324790716	849.8681317087253	36.927370994630124	3776.918698672798	844.9909320159642	46.35623274999118	3775.109841036856	838.0731263522642	54.76135331921935	3779.8482687575415	841.3876357117846	27.23042103524396	3772.640274228437	827.3939152989917	46.77603189737937	3768.9682822562795	816.0875763163093	60.87446636955997	3768.176302147869	811.9991592519372	67.87672997988061	3768.5264393500483	810.5987964287895	72.48348500810224	3779.515879902523	832.7330251422013	28.305455735969268	3772.3052452636866	814.4031396658113	47.95099760858537	3768.2795727234447	800.9671424749117	63.414263659950166	3767.315065010787	795.5074834779696	71.90017251712294	3767.6937929161195	793.7189679655587	76.95924172768036	3779.4483459081075	826.9669847841602	28.56920278562986	3772.878877470745	805.5090865970956	46.41328539852039	3769.362419725319	792.7044016988517	59.94094689908985	3768.428006969032	786.8572498149184	68.1527356503227	3768.782180759197	784.9003393449548	72.92206580011623	3779.710394798761	820.7949022873117	28.283222234107694	3773.7883183308177	797.2752206709573	44.489812356475746	3770.9892772936178	785.4088587643184	55.322154313746324	3770.3158443183693	780.363733903352	61.3118154289405	3770.6342684112565	778.1812229875138	65.53663566962841	3889.6461678628275	1224.0178153806269	-112.2346380654164	3871.255400966946	1260.5065856093058	-6.068823356829419	3901.242198465155	1046.2015130342797	31.536692472343752	3823.4912885533126	856.1982950329525	24.756866565790087	3812.608456748331	866.6890606634796	22.974612047406993	3804.0948227469294	860.1014811457436	15.608894101407017	3797.9899100880543	852.0106074567709	11.28991072860807	3792.7499318351324	842.2686339061561	8.382721910447842	3810.4740610890367	855.7773464544667	26.547460928586084	3792.114012143306	839.176942206128	28.691168172067727	3782.034392646207	823.9706059524509	25.744469217019972	3778.8164356335456	816.6529638404505	20.649630180219003	3778.209267938989	812.0370381376313	14.231721547608224	3810.7625587596212	846.6530980243723	28.466310652028085	3793.009998012473	825.5272975539043	31.596394914304035	3782.1121203737866	807.7795147061413	28.62164627209622	3778.2782461224465	798.396980269294	22.590401875364776	3777.637458910795	793.0769667200962	15.62418897267332	3811.402714694806	840.641330233703	29.818068063066942	3795.9543924119935	816.5216340416898	33.945277292752465	3786.587315473158	799.9056147268902	31.592994564739662	3782.9591071028503	790.2463000940193	25.903098794334667	3782.3897205464227	784.9555056280434	19.413626281003424	3812.9260230927	834.1075140278276	30.913804443088196	3799.582085323641	807.9882103961037	35.54590432684432	3792.354123629989	792.9983902599905	34.01913684298236	3789.8396823720345	785.1380788100832	30.04152902592345	3789.4112572241565	779.9823879035958	24.39225762149521
